<svg xmlns="http://www.w3.org/2000/svg" width="64.001" height="26.34" viewBox="0 0 64.001 26.34">
    <path fill="current" d="M-23.725-2.912a.459.459 0 0 1 .162.03.44.44 0 0 1 .155.1l.9.952a3.756 3.756 0 0 1-1.483 1.176 5.209 5.209 0 0 1-2.116.395 5.042 5.042 0 0 1-2.009-.381 4.347 4.347 0 0 1-1.505-1.053 4.638 4.638 0 0 1-.949-1.593 5.883 5.883 0 0 1-.331-2 5.277 5.277 0 0 1 .378-2.022A4.716 4.716 0 0 1-29.466-8.9a4.766 4.766 0 0 1 1.624-1.04 5.659 5.659 0 0 1 2.086-.371 5.314 5.314 0 0 1 1.043.1 5.1 5.1 0 0 1 .915.27 4.3 4.3 0 0 1 .783.412 3.775 3.775 0 0 1 .635.53l-.77 1.033a.98.98 0 0 1-.176.172.457.457 0 0 1-.284.078.506.506 0 0 1-.23-.054 2.537 2.537 0 0 1-.23-.132l-.267-.169a2.046 2.046 0 0 0-.344-.169 2.846 2.846 0 0 0-.466-.132 3.179 3.179 0 0 0-.624-.054 2.856 2.856 0 0 0-1.134.219 2.487 2.487 0 0 0-.881.628 2.912 2.912 0 0 0-.574.989 3.88 3.88 0 0 0-.206 1.3 4.05 4.05 0 0 0 .206 1.343 2.95 2.95 0 0 0 .56.989 2.378 2.378 0 0 0 .827.611 2.473 2.473 0 0 0 1.013.209 4.847 4.847 0 0 0 .567-.03 2.341 2.341 0 0 0 .476-.1 2.2 2.2 0 0 0 .419-.192 2.794 2.794 0 0 0 .4-.294.8.8 0 0 1 .176-.111.46.46 0 0 1 .197-.047zm11.417 2.545h-1.769a.818.818 0 0 1-.489-.138.715.715 0 0 1-.267-.354l-.581-1.715h-3.74l-.581 1.715a.76.76 0 0 1-.265.34.758.758 0 0 1-.479.152h-1.781l3.808-9.836h2.336zm-6.319-3.76h2.687l-.9-2.694-.206-.6q-.118-.348-.233-.753-.108.412-.223.763t-.216.608zM-6.03-8.2a.857.857 0 0 1-.213.243.476.476 0 0 1-.287.081.7.7 0 0 1-.334-.1l-.405-.224a3.361 3.361 0 0 0-.516-.219 2.066 2.066 0 0 0-.662-.1 1.424 1.424 0 0 0-.955.273.93.93 0 0 0-.314.739.681.681 0 0 0 .189.493 1.63 1.63 0 0 0 .5.338 5.319 5.319 0 0 0 .7.26q.395.118.807.263a7.215 7.215 0 0 1 .807.341 2.69 2.69 0 0 1 .7.5 2.332 2.332 0 0 1 .5.739 2.629 2.629 0 0 1 .189 1.05 3.421 3.421 0 0 1-.236 1.276 2.988 2.988 0 0 1-.685 1.036 3.181 3.181 0 0 1-1.107.7 4.142 4.142 0 0 1-1.5.253 4.793 4.793 0 0 1-.935-.095 5.553 5.553 0 0 1-.922-.267 5.344 5.344 0 0 1-.837-.408 3.557 3.557 0 0 1-.682-.527l.675-1.067a.549.549 0 0 1 .209-.2.593.593 0 0 1 .29-.074.769.769 0 0 1 .408.128q.206.128.466.284a3.791 3.791 0 0 0 .6.284 2.24 2.24 0 0 0 .8.128 1.517 1.517 0 0 0 .965-.273 1.041 1.041 0 0 0 .344-.868.82.82 0 0 0-.189-.56 1.46 1.46 0 0 0-.5-.358 4.572 4.572 0 0 0-.7-.25q-.392-.108-.8-.24a5.878 5.878 0 0 1-.8-.324 2.535 2.535 0 0 1-.7-.506 2.369 2.369 0 0 1-.5-.783 3.109 3.109 0 0 1-.189-1.158 2.747 2.747 0 0 1 .223-1.08 2.788 2.788 0 0 1 .655-.938 3.22 3.22 0 0 1 1.06-.658 3.915 3.915 0 0 1 1.438-.246 5.392 5.392 0 0 1 .881.071 4.632 4.632 0 0 1 .814.209 4.468 4.468 0 0 1 .718.334 3.315 3.315 0 0 1 .6.435zM4.394-.367H2.1v-4.158h-4v4.158h-2.3V-10.2h2.3v4.111h4V-10.2h2.3zm13.934-4.921A5.286 5.286 0 0 1 17.96-3.3a4.784 4.784 0 0 1-1.036 1.6 4.752 4.752 0 0 1-1.61 1.063 5.476 5.476 0 0 1-2.089.385 5.5 5.5 0 0 1-2.093-.385 4.781 4.781 0 0 1-1.617-1.07 4.758 4.758 0 0 1-1.04-1.6 5.286 5.286 0 0 1-.368-1.985 5.286 5.286 0 0 1 .368-1.985 4.721 4.721 0 0 1 1.04-1.593 4.807 4.807 0 0 1 1.617-1.06 5.5 5.5 0 0 1 2.093-.385 5.434 5.434 0 0 1 2.089.388 4.819 4.819 0 0 1 1.61 1.063 4.747 4.747 0 0 1 1.036 1.598 5.268 5.268 0 0 1 .368 1.978zm-2.336 0A4.253 4.253 0 0 0 15.8-6.6a2.781 2.781 0 0 0-.543-.989 2.344 2.344 0 0 0-.868-.621 2.986 2.986 0 0 0-1.168-.216 3.029 3.029 0 0 0-1.178.216 2.338 2.338 0 0 0-.871.621 2.781 2.781 0 0 0-.543.989 4.253 4.253 0 0 0-.189 1.313 4.277 4.277 0 0 0 .189 1.32 2.781 2.781 0 0 0 .543.989 2.305 2.305 0 0 0 .871.618 3.072 3.072 0 0 0 1.178.213 3.027 3.027 0 0 0 1.168-.213 2.311 2.311 0 0 0 .868-.618 2.781 2.781 0 0 0 .543-.989 4.277 4.277 0 0 0 .192-1.321zm4.632-4.912a1.937 1.937 0 0 1 .25.014.638.638 0 0 1 .182.051.608.608 0 0 1 .155.1 1.775 1.775 0 0 1 .169.182l4.672 5.907q-.027-.284-.041-.55T26-5v-5.2h2.012v9.833h-1.191a1.1 1.1 0 0 1-.446-.081.953.953 0 0 1-.351-.3L21.386-6.6q.02.257.034.5t.014.462v5.271h-2.012V-10.2zm-44.389 21.31a5.158 5.158 0 0 1-.368 1.968 4.6 4.6 0 0 1-1.036 1.56 4.7 4.7 0 0 1-1.61 1.026 5.7 5.7 0 0 1-2.089.368h-3.822V6.193h3.821a5.652 5.652 0 0 1 2.089.371 4.768 4.768 0 0 1 1.61 1.026 4.568 4.568 0 0 1 1.036 1.556 5.14 5.14 0 0 1 .369 1.961zm-2.336 0a4.285 4.285 0 0 0-.189-1.316 2.813 2.813 0 0 0-.543-1 2.36 2.36 0 0 0-.868-.628 2.945 2.945 0 0 0-1.168-.219h-1.526v6.326h1.526a2.945 2.945 0 0 0 1.168-.219 2.36 2.36 0 0 0 .868-.628 2.813 2.813 0 0 0 .543-1 4.309 4.309 0 0 0 .19-1.319zm9.762-4.915v1.753h-4.037v2.3h3.092v1.688h-3.092v2.343h4.037v1.755h-6.333V6.193zm3.578 8.014h3.646v1.823h-5.927V6.193h2.282zm7.224 1.823h-2.3V6.193h2.3zm1.013-9.836h1.836a.817.817 0 0 1 .486.135.74.74 0 0 1 .27.358l1.9 5.266q.128.344.26.749t.246.851q.099-.449.226-.855t.246-.749l1.89-5.266a.782.782 0 0 1 .743-.493h1.85l-3.945 9.837H-.582zm17.094 0v1.752H8.532v2.3h3.092v1.688H8.532v2.343h4.037v1.755H6.237V6.193zm3.578 6.2v3.639h-2.282V6.193h3.2a6.567 6.567 0 0 1 1.819.219 3.416 3.416 0 0 1 1.229.611 2.312 2.312 0 0 1 .692.925 3.064 3.064 0 0 1 .216 1.161 3.117 3.117 0 0 1-.128.9 2.739 2.739 0 0 1-.381.787 2.952 2.952 0 0 1-.621.645 3.3 3.3 0 0 1-.847.466 2.145 2.145 0 0 1 .429.284 1.687 1.687 0 0 1 .348.412l2.093 3.423h-2.068a.876.876 0 0 1-.824-.432l-1.633-2.853a.688.688 0 0 0-.253-.27.847.847 0 0 0-.408-.081zm0-1.573h.918a2.348 2.348 0 0 0 .793-.118 1.433 1.433 0 0 0 .537-.327 1.247 1.247 0 0 0 .3-.489 1.879 1.879 0 0 0 .095-.6 1.267 1.267 0 0 0-.422-1.013 1.964 1.964 0 0 0-1.303-.376h-.918zm11.6 1.472v3.74h-2.284v-3.74L21.9 6.193h2.012a.743.743 0 0 1 .473.138 1.03 1.03 0 0 1 .284.354l1.391 2.862.311.635q.142.29.25.574a5.3 5.3 0 0 1 .243-.581q.142-.29.3-.628l1.377-2.862a.844.844 0 0 1 .111-.176.983.983 0 0 1 .162-.159.781.781 0 0 1 .209-.115.741.741 0 0 1 .26-.044h2.025z" transform="translate(32.69 10.311)"/>
</svg>
