<svg xmlns="http://www.w3.org/2000/svg" width="34.138" height="40" viewBox="0 0 34.138 40">
    <g>
        <path fill="#03a9f4" d="M157.47 116.379a.832.832 0 0 0-1.25.628c-.03.273-.077.547-.135.833-1.632 7.4-4.908 11.007-10.02 11.007h-7.5a.833.833 0 0 0-.815.667l-2.5 11.718-.447 2.983a2.5 2.5 0 0 0 2.445 2.965h5.017a2.488 2.488 0 0 0 2.425-1.9l2.027-8.1h4.348c5.132 0 8.678-4.092 9.987-11.522a8.71 8.71 0 0 0-3.582-9.279z" transform="translate(-37.513) translate(-89.649 -107.181)"/>
        <path fill="#283593" d="M66.249 2.97a8.77 8.77 0 0 0-6.5-2.97h-13.8a4.145 4.145 0 0 0-4.123 3.543l-4.285 28.585A2.5 2.5 0 0 0 40.016 35h6.4a.833.833 0 0 0 .815-.667l2.358-11h6.833c5.93 0 9.848-4.145 11.648-12.333a9.815 9.815 0 0 0 .167-.988 8.605 8.605 0 0 0-1.988-7.042z" transform="translate(-37.513)"/>
    </g>
</svg>
